<?xml version="1.0" encoding="UTF-8"?>
<svg version="1.1" xmlns="http://www.w3.org/2000/svg" width="500" height="500">
<path d="M0 0 C2.93220082 1.53089976 5.07222258 3.7047816 7.36070251 6.04455566 C7.87822586 6.56164093 8.39574921 7.0787262 8.92895508 7.61148071 C10.63509254 9.31970556 12.3303625 11.03830485 14.02574158 12.75720215 C15.20764217 13.94469885 16.39020754 15.13153425 17.57341003 16.31773376 C20.6838876 19.43965879 23.7852505 22.57048834 26.8848114 25.70324707 C30.05003839 28.89917687 33.22378826 32.0866178 36.39683533 35.27478027 C42.62005806 41.53016544 48.83368635 47.79498915 55.04136658 54.0657959 C53.72136658 55.3857959 52.40136658 56.7057959 51.04136658 58.0657959 C44.99870744 53.06323711 39.48038615 47.63402266 33.95152283 42.0736084 C32.99767703 41.11789341 32.04360717 40.16240202 31.08932495 39.2071228 C28.59983464 36.71384674 26.11336433 34.21758065 23.62754822 31.72064209 C21.08178664 29.1645808 18.53312881 26.61141085 15.98472595 24.0579834 C11.00079589 19.06338571 6.0200561 14.06561791 1.04136658 9.0657959 C-3.06792753 10.95271035 -5.84950129 13.71931558 -8.97425842 16.92126465 C-9.54891846 17.50112625 -10.12357849 18.08098785 -10.71565247 18.67842102 C-12.55147361 20.5320145 -14.38048758 22.3921345 -16.20863342 24.2532959 C-18.60625193 26.68768769 -21.00705052 29.11887533 -23.41175842 31.54626465 C-23.98889084 32.12889572 -24.56602325 32.71152679 -25.16064453 33.31181335 C-28.75449722 36.91797986 -32.43435962 40.36222597 -36.31752014 43.6583252 C-38.79834194 45.78595651 -41.08871292 48.06367596 -43.39613342 50.3782959 C-44.66263733 51.64093262 -44.66263733 51.64093262 -45.95472717 52.92907715 C-49.54108892 56.75313149 -49.09494379 60.09852157 -49.07215881 65.09558105 C-49.07227935 65.93835791 -49.07239988 66.78113476 -49.07252407 67.6494503 C-49.07177612 70.38461294 -49.06415322 73.11970791 -49.05628967 75.8548584 C-49.05481989 77.54064908 -49.0537994 79.22644022 -49.05323792 80.91223145 C-49.04798925 87.17175988 -49.03402812 93.43127855 -49.02113342 99.6907959 C-49.00050842 113.6745459 -48.97988342 127.6582959 -48.95863342 142.0657959 C-14.30863342 142.0657959 20.34136658 142.0657959 56.04136658 142.0657959 C56.04136658 144.0457959 56.04136658 146.0257959 56.04136658 148.0657959 C41.71642231 148.0891261 27.39148099 148.10670926 13.06652164 148.11760807 C6.41563128 148.12283764 -0.23524128 148.12993662 -6.88612366 148.14123535 C-13.29866219 148.15206161 -19.71118846 148.15807217 -26.12373543 148.16067314 C-28.5762762 148.16252786 -31.02881627 148.16614937 -33.48135185 148.17152596 C-36.90340019 148.17873291 -40.32539714 148.17978699 -43.74745178 148.17932129 C-45.28493073 148.1847142 -45.28493073 148.1847142 -46.85346985 148.19021606 C-47.78040146 148.1888414 -48.70733307 148.18746674 -49.66235352 148.18605042 C-50.47260955 148.18697221 -51.28286558 148.187894 -52.11767483 148.18884373 C-53.95863342 148.0657959 -53.95863342 148.0657959 -54.95863342 147.0657959 C-55.12115767 144.24856803 -55.21907005 141.45399262 -55.27503967 138.63391113 C-55.30675514 137.30697487 -55.30675514 137.30697487 -55.33911133 135.95323181 C-55.55218982 126.67747202 -55.70131705 117.40020854 -55.84584045 108.12316895 C-55.91642221 103.72184038 -56.00666507 99.32159368 -56.11439514 94.92102051 C-56.24427551 89.60977842 -56.33922272 84.29897409 -56.40953064 78.98661995 C-56.44209822 76.96387666 -56.48683401 74.94129038 -56.54411316 72.91909599 C-57.03321533 55.08350805 -57.03321533 55.08350805 -53.10389709 50.45495605 C-51.74745325 49.29496763 -50.36275711 48.16758976 -48.95863342 47.0657959 C-47.25986109 45.33604548 -45.57944915 43.58816279 -43.91297913 41.82727051 C-41.99533363 39.86578271 -40.06451803 37.91736354 -38.13441467 35.96813965 C-37.62729635 35.45569765 -37.12017803 34.94325565 -36.59769249 34.41528511 C-33.92485852 31.71596748 -31.24852964 29.02016627 -28.56971741 26.32678223 C-26.35824045 24.10185666 -24.1543059 21.86983678 -21.95643616 19.63146973 C-19.2879999 16.91390212 -16.60766853 14.2086417 -13.91812706 11.5119648 C-12.89837684 10.4854907 -11.88289524 9.45475767 -10.87180519 8.41975212 C-9.46498463 6.98150715 -8.04093352 5.56017674 -6.61610413 4.13977051 C-5.81115005 3.32672958 -5.00619598 2.51368866 -4.17684937 1.67601013 C-1.95863342 0.0657959 -1.95863342 0.0657959 0 0 Z " fill="#000000" transform="translate(89.95863342285156,171.9342041015625)"/>
<path d="M0 0 C1.98 0 3.96 0 6 0 C6 13.2 6 26.4 6 40 C9.96 40 13.92 40 18 40 C18 42.31 18 44.62 18 47 C11.73 47 5.46 47 -1 47 C-1.02464347 40.46720661 -1.04283291 33.93444002 -1.05493164 27.40161133 C-1.05997317 25.17732268 -1.06680623 22.95303737 -1.07543945 20.72875977 C-1.08751298 17.53921691 -1.09322996 14.34971771 -1.09765625 11.16015625 C-1.10281754 10.15912369 -1.10797882 9.15809113 -1.11329651 8.12672424 C-1.11337204 7.20584518 -1.11344757 6.28496613 -1.11352539 5.33618164 C-1.115746 4.52121719 -1.11796661 3.70625275 -1.12025452 2.86659241 C-1 1 -1 1 0 0 Z " fill="#000000" transform="translate(77,242)"/>
<path d="M0 0 C1.99954746 -0.04254356 4.00041636 -0.04080783 6 0 C8.08204358 2.08204358 7.25821292 6.5338556 7.31640625 9.41015625 C7.33718735 10.25219101 7.35796844 11.09422577 7.37937927 11.96177673 C7.44496812 14.66193179 7.50380276 17.36218717 7.5625 20.0625 C7.60567637 21.88868241 7.64929036 23.71485454 7.69335938 25.54101562 C7.80065894 30.02723992 7.90189966 34.5135655 8 39 C9.65 39.33 11.3 39.66 13 40 C14.63657754 36.72684491 14.2430807 33.09377769 14.31640625 29.4921875 C14.33718735 28.65156769 14.35796844 27.81094788 14.37937927 26.94485474 C14.44485439 24.25498765 14.5037502 21.56502157 14.5625 18.875 C14.60568716 17.05337511 14.64930152 15.23176029 14.69335938 13.41015625 C14.80053368 8.94020606 14.90180685 4.47015614 15 0 C16.98 0 18.96 0 21 0 C21.04945571 5.76577504 21.0857461 11.53142646 21.10986328 17.29736328 C21.11991783 19.25864818 21.13356333 21.21991811 21.15087891 23.18115234 C21.17515113 26.00101418 21.18648859 28.82067772 21.1953125 31.640625 C21.20563507 32.51680481 21.21595764 33.39298462 21.22659302 34.29571533 C21.22674408 35.11626404 21.22689514 35.93681274 21.22705078 36.78222656 C21.231492 37.50170471 21.23593323 38.22118286 21.24050903 38.96246338 C20.95379763 41.39141575 20.30261454 42.9334754 19 45 C14.56313179 47.95791214 10.20591533 47.65561752 5 47 C2.34436198 45.1031157 1.42757473 43.85514945 0 41 C-0.08711775 37.93757679 -0.1154846 34.89813535 -0.09765625 31.8359375 C-0.0962413 30.92872955 -0.09482635 30.02152161 -0.09336853 29.08682251 C-0.08776096 26.18284845 -0.07520718 23.27895085 -0.0625 20.375 C-0.05748598 18.40885528 -0.0529229 16.44270935 -0.04882812 14.4765625 C-0.03778906 9.6510121 -0.02051935 4.82551903 0 0 Z " fill="#000000" transform="translate(103,242)"/>
<path d="M0 0 C1.98 0 3.96 0 6 0 C8.25861997 4.93387858 10.40109514 9.80355921 12 15 C13.93348516 12.09977227 14.92700682 9.64763813 16.0625 6.375 C17.89537223 1.10462777 17.89537223 1.10462777 19 0 C20.66617115 -0.04063832 22.33388095 -0.042721 24 0 C23.44180779 5.18321342 22.18254309 9.36669219 20.25 14.25 C17.65392802 21.46190397 18.13401579 25.99650338 21 33 C21.74010272 35.18382422 22.46927199 37.37138412 23.1875 39.5625 C23.53167969 40.55378906 23.87585938 41.54507813 24.23046875 42.56640625 C25 45 25 45 25 47 C22.69 47 20.38 47 18 47 C15.84705349 41.71169451 13.72066106 36.44876003 12 31 C9.84705349 36.28830549 7.72066106 41.55123997 6 47 C3.69 47 1.38 47 -1 47 C0.69636915 40.35588748 2.65258358 34.0236069 5.328125 27.703125 C6.80873912 21.74623564 4.56113376 16.36056883 2.4375 10.8125 C0.91200505 6.82374125 0 4.29822889 0 0 Z " fill="#000000" transform="translate(133,242)"/>
<path d="M0 0 C14.39130435 0 14.39130435 0 18.875 3.4375 C21.4300338 6.98615806 21.19653762 10.66038227 21.25 14.875 C21.27578125 16.08929688 21.3015625 17.30359375 21.328125 18.5546875 C20.97446831 22.26808278 20.25141594 24.06474277 18 27 C15 29 15 29 7 29 C7 34.94 7 40.88 7 47 C4.69 47 2.38 47 0 47 C0 31.49 0 15.98 0 0 Z M7 7 C7 12.28 7 17.56 7 23 C8.65 23 10.3 23 12 23 C14.28027649 21.14362178 14.28027649 21.14362178 14.265625 18.25 C14.25789062 16.64125 14.25789062 16.64125 14.25 15 C14.25515625 13.9275 14.2603125 12.855 14.265625 11.75 C14.28027649 8.85637822 14.28027649 8.85637822 12 7 C10.35 7 8.7 7 7 7 Z " fill="#000000" transform="translate(181,242)"/>
<path d="M0 0 C15.39130435 0 15.39130435 0 19.875 3.4375 C22.77705205 7.46812785 22.34106914 12.26662585 22 17 C21.0410536 20.21932007 20.36871021 21.63128979 18 24 C18.474375 24.4125 18.94875 24.825 19.4375 25.25 C22.90315043 29.13152848 22.11908625 34.32264368 22.0625 39.25 C22.05798828 39.99507813 22.05347656 40.74015625 22.04882812 41.5078125 C22.03709246 43.3385764 22.0191585 45.16929873 22 47 C19.69 47 17.38 47 15 47 C14.93941406 45.95199219 14.87882813 44.90398437 14.81640625 43.82421875 C14.73198262 42.44529952 14.64733553 41.06639395 14.5625 39.6875 C14.52318359 38.99720703 14.48386719 38.30691406 14.44335938 37.59570312 C14.25072585 34.52838465 13.97677283 31.93031848 13 29 C11.02 28.67 9.04 28.34 7 28 C7 34.27 7 40.54 7 47 C4.69 47 2.38 47 0 47 C0 31.49 0 15.98 0 0 Z M7 7 C7 11.62 7 16.24 7 21 C8.98 21 10.96 21 13 21 C14.99825961 18.00261059 15.27550398 17.36652492 15.25 14 C15.25515625 13.319375 15.2603125 12.63875 15.265625 11.9375 C15.09917603 9.67583993 15.09917603 9.67583993 13 7 C11.02 7 9.04 7 7 7 Z " fill="#000000" transform="translate(210,242)"/>
<path d="M0 0 C2.78998204 1.21303567 4.39872875 2.11789784 6.11181641 4.63110352 C7.35461027 7.94578985 7.32494468 11.15849134 7.3359375 14.65234375 C7.3425943 15.38949112 7.3492511 16.12663849 7.35610962 16.88612366 C7.36621333 18.4418794 7.37092734 19.99767828 7.37060547 21.5534668 C7.37497944 23.92634817 7.41132091 26.29736925 7.44921875 28.66992188 C7.45508742 30.1848895 7.45905648 31.69986592 7.4609375 33.21484375 C7.47530853 33.9201976 7.48967957 34.62555145 7.50448608 35.35227966 C7.45999848 40.17765558 6.41913192 42.61392049 3 46 C-0.71710563 47.85855282 -4.95277281 47.57908439 -9 47 C-12.34625024 44.47323961 -13.67977847 42.96066458 -15 39 C-15.22800089 34.60372836 -15.22827937 30.20514601 -15.24023438 25.80371094 C-15.24993464 23.63958215 -15.28096767 21.47640581 -15.3125 19.3125 C-15.31903127 17.92969312 -15.32428126 16.54687947 -15.328125 15.1640625 C-15.34214355 13.28388428 -15.34214355 13.28388428 -15.35644531 11.36572266 C-14.88673155 6.93046654 -13.30640835 4.40317934 -10.3125 1.1875 C-6.91748573 -0.55588571 -3.69481217 -0.54357078 0 0 Z M-5 6 C-6.61354959 7.09431988 -6.61354959 7.09431988 -8 9 C-8.44807405 12.05002853 -8.44807405 12.05002853 -8.36328125 15.53125 C-8.36263672 16.81644531 -8.36199219 18.10164063 -8.36132812 19.42578125 C-8.35302979 20.09432129 -8.34473145 20.76286133 -8.33618164 21.45166016 C-8.31258192 23.49291452 -8.31562347 25.53286255 -8.32226562 27.57421875 C-8.60160766 34.67993464 -8.60160766 34.67993464 -6 41 C-2.70924004 40.62095792 -2.70924004 40.62095792 0 39 C0.08790975 36.70848583 0.10694038 34.41427476 0.09765625 32.12109375 C0.0962413 31.4344313 0.09482635 30.74776886 0.09336853 30.04029846 C0.08775479 27.83932199 0.07520007 25.63844591 0.0625 23.4375 C0.05748676 21.94856917 0.05292355 20.45963676 0.04882812 18.97070312 C0.03778093 15.31376925 0.02050713 11.65689442 0 8 C-2.475 7.01 -2.475 7.01 -5 6 Z " fill="#000000" transform="translate(255,242)"/>
<path d="M0 0 C4.5515245 0.05860332 8.15269291 0.46410935 12.375 2.1875 C16.90132671 6.86470427 16.64990692 12.05742561 16.59765625 18.23046875 C16.32566855 21.84265632 15.47368872 24.23378994 13.375 27.1875 C10.375 29.1875 10.375 29.1875 2.375 30.1875 C2.045 35.7975 1.715 41.4075 1.375 47.1875 C-0.935 47.1875 -3.245 47.1875 -5.625 47.1875 C-5.65027002 40.65471214 -5.66783292 34.12193679 -5.67993164 27.58911133 C-5.68497317 25.36482268 -5.69180623 23.14053737 -5.70043945 20.91625977 C-5.71251298 17.72671691 -5.71822996 14.53721771 -5.72265625 11.34765625 C-5.72781754 10.34662369 -5.73297882 9.34559113 -5.73829651 8.31422424 C-5.73837204 7.39334518 -5.73844757 6.47246613 -5.73852539 5.52368164 C-5.740746 4.70871719 -5.74296661 3.89375275 -5.74525452 3.05409241 C-5.50551506 -0.6671471 -3.19445786 0.02412733 0 0 Z M1.375 7.1875 C1.375 12.4675 1.375 17.7475 1.375 23.1875 C3.355 23.1875 5.335 23.1875 7.375 23.1875 C9.61734009 19.82398987 9.64598215 18.56439944 9.625 14.625 C9.63015625 13.65433594 9.6353125 12.68367187 9.640625 11.68359375 C9.62094496 9.01457063 9.62094496 9.01457063 7.375 7.1875 C5.395 7.1875 3.415 7.1875 1.375 7.1875 Z " fill="#000000" transform="translate(276.625,241.8125)"/>
<path d="M0 0 C6.27 0 12.54 0 19 0 C19 2.31 19 4.62 19 7 C15.04 7 11.08 7 7 7 C7 11.29 7 15.58 7 20 C10.3 20 13.6 20 17 20 C17.04254356 21.99954746 17.04080783 24.00041636 17 26 C16 27 16 27 13.93359375 27.09765625 C10.46679688 27.04882812 10.46679688 27.04882812 7 27 C7 31.29 7 35.58 7 40 C10.96 40 14.92 40 19 40 C19 42.31 19 44.62 19 47 C12.73 47 6.46 47 0 47 C0 31.49 0 15.98 0 0 Z " fill="#000000" transform="translate(301,242)"/>
<path d="M0 0 C4.8588772 0.06961142 8.86251755 0.50198015 13.4375 2.1875 C16.27181014 5.8623297 16.84731921 8.65966697 16.8125 13.25 C16.82023437 14.27222656 16.82796875 15.29445313 16.8359375 16.34765625 C16.39504857 19.49007047 15.54267879 20.86512023 13.4375 23.1875 C13.9015625 24.0846875 13.9015625 24.0846875 14.375 25 C15.88916608 28.11740075 16.5736378 30.77411817 16.75390625 34.19921875 C16.79580078 34.95654297 16.83769531 35.71386719 16.88085938 36.49414062 C16.92017578 37.27982422 16.95949219 38.06550781 17 38.875 C17.04318359 39.67228516 17.08636719 40.46957031 17.13085938 41.29101562 C17.23677368 43.25631447 17.33762551 45.22188496 17.4375 47.1875 C14.7975 47.1875 12.1575 47.1875 9.4375 47.1875 C9.37691406 46.05570312 9.31632812 44.92390625 9.25390625 43.7578125 C9.16950083 42.27602855 9.08485283 40.7942584 9 39.3125 C8.96068359 38.56613281 8.92136719 37.81976563 8.88085938 37.05078125 C8.72176376 32.98763136 8.72176376 32.98763136 7.4375 29.1875 C5.4575 28.8575 3.4775 28.5275 1.4375 28.1875 C1.4375 34.4575 1.4375 40.7275 1.4375 47.1875 C-0.8725 47.1875 -3.1825 47.1875 -5.5625 47.1875 C-5.58777002 40.65471214 -5.60533292 34.12193679 -5.61743164 27.58911133 C-5.62247317 25.36482268 -5.62930623 23.14053737 -5.63793945 20.91625977 C-5.65001298 17.72671691 -5.65572996 14.53721771 -5.66015625 11.34765625 C-5.66531754 10.34662369 -5.67047882 9.34559113 -5.67579651 8.31422424 C-5.67587204 7.39334518 -5.67594757 6.47246613 -5.67602539 5.52368164 C-5.678246 4.70871719 -5.68046661 3.89375275 -5.68275452 3.05409241 C-5.44440736 -0.64553578 -3.18227072 0.02429214 0 0 Z M1.4375 7.1875 C1.4375 11.8075 1.4375 16.4275 1.4375 21.1875 C3.4175 21.1875 5.3975 21.1875 7.4375 21.1875 C9.65802862 19.38150239 9.65802862 19.38150239 9.703125 16.875 C9.69796875 15.988125 9.6928125 15.10125 9.6875 14.1875 C9.69265625 13.300625 9.6978125 12.41375 9.703125 11.5 C9.65802862 8.99349761 9.65802862 8.99349761 7.4375 7.1875 C5.4575 7.1875 3.4775 7.1875 1.4375 7.1875 Z " fill="#000000" transform="translate(334.5625,241.8125)"/>
<path d="M0 0 C7.26 0 14.52 0 22 0 C22 2.31 22 4.62 22 7 C19.69 7 17.38 7 15 7 C15 20.2 15 33.4 15 47 C12.69 47 10.38 47 8 47 C8 33.8 8 20.6 8 7 C5.36 7 2.72 7 0 7 C0 4.69 0 2.38 0 0 Z " fill="#000000" transform="translate(358,242)"/>
<path d="M0 0 C2.31 0 4.62 0 7 0 C7 15.51 7 31.02 7 47 C4.69 47 2.38 47 0 47 C0 31.49 0 15.98 0 0 Z " fill="#000000" transform="translate(388,242)"/>
<path d="M0 0 C1.18613892 0.00785522 1.18613892 0.00785522 2.39624023 0.01586914 C3.67724609 0.02070313 3.67724609 0.02070313 4.98413086 0.02563477 C5.88196289 0.03401367 6.77979492 0.04239258 7.70483398 0.05102539 C8.6065332 0.05553711 9.50823242 0.06004883 10.43725586 0.06469727 C12.67234712 0.07652315 14.90730835 0.09300319 17.14233398 0.11352539 C17.14233398 2.42352539 17.14233398 4.73352539 17.14233398 7.11352539 C12.85233398 7.11352539 8.56233398 7.11352539 4.14233398 7.11352539 C4.14233398 11.40352539 4.14233398 15.69352539 4.14233398 20.11352539 C7.44233398 20.11352539 10.74233398 20.11352539 14.14233398 20.11352539 C14.14233398 22.42352539 14.14233398 24.73352539 14.14233398 27.11352539 C10.84233398 27.11352539 7.54233398 27.11352539 4.14233398 27.11352539 C4.14233398 31.40352539 4.14233398 35.69352539 4.14233398 40.11352539 C8.43233398 40.11352539 12.72233398 40.11352539 17.14233398 40.11352539 C17.14233398 42.42352539 17.14233398 44.73352539 17.14233398 47.11352539 C10.54233398 47.11352539 3.94233398 47.11352539 -2.85766602 47.11352539 C-2.88230948 40.580732 -2.90049893 34.04796541 -2.91259766 27.51513672 C-2.91763918 25.29084807 -2.92447224 23.06656276 -2.93310547 20.84228516 C-2.945179 17.6527423 -2.95089597 14.4632431 -2.95532227 11.27368164 C-2.96048355 10.27264908 -2.96564484 9.27161652 -2.97096252 8.24024963 C-2.97103806 7.31937057 -2.97111359 6.39849152 -2.97119141 5.44970703 C-2.97341202 4.63474258 -2.97563263 3.81977814 -2.97792053 2.9801178 C-2.81471327 0.44681227 -2.53492349 0.15491384 0 0 Z " fill="#000000" transform="translate(406.857666015625,241.886474609375)"/>
<path d="M0 0 C2.35796411 1.88637129 3.28741849 2.88610427 4.1875 5.75 C4.3125 9 4.3125 9 4.1875 11.75 C2.2075 11.75 0.2275 11.75 -1.8125 11.75 C-2.1425 9.77 -2.4725 7.79 -2.8125 5.75 C-4.7925 6.08 -6.7725 6.41 -8.8125 6.75 C-9.42942064 11.80874922 -8.23786817 14.23359061 -5.24609375 18.08984375 C-3.96027571 19.57887009 -2.57863757 20.98386243 -1.1875 22.375 C2.79167078 26.35417078 4.37448883 29.1134987 4.625 34.75 C4.52259982 38.3663431 4.25960485 39.63222874 2.3125 42.8125 C-1.3887281 46.18714915 -4.44717175 46.21586535 -9.32421875 46.15234375 C-12.05217462 45.71124571 -13.0649209 45.24130169 -14.9375 43.25 C-17.2712554 38.89365658 -17.23114708 36.60630608 -16.8125 31.75 C-14.8325 31.75 -12.8525 31.75 -10.8125 31.75 C-10.1525 34.06 -9.4925 36.37 -8.8125 38.75 C-6.3375 38.255 -6.3375 38.255 -3.8125 37.75 C-3.22119572 35.09065953 -3.22119572 35.09065953 -3.8125 31.75 C-5.87932227 28.82911894 -8.33472128 26.32369273 -10.8125 23.75 C-15.30264834 18.41036414 -17.23906246 14.93583188 -17.06640625 7.9375 C-16.71319693 4.89446586 -15.78654236 3.07654992 -13.8125 0.75 C-9.65194818 -2.37041386 -4.59375224 -2.04166766 0 0 Z " fill="#000000" transform="translate(448.8125,243.25)"/>
<path d="M0 0 C-0.47549934 2.62571335 -0.95522567 5.2505304 -1.4375 7.875 C-1.57220703 8.62136719 -1.70691406 9.36773437 -1.84570312 10.13671875 C-2.88671875 15.7734375 -2.88671875 15.7734375 -4 18 C-4.99 18 -5.98 18 -7 18 C-6.855625 16.865625 -6.71125 15.73125 -6.5625 14.5625 C-5.99698633 10.04646944 -5.49225191 5.52452819 -5 1 C-2 0 -2 0 0 0 Z " fill="#000000" transform="translate(227,304)"/>
<path d="M0 0 C0.33 0.99 0.66 1.98 1 3 C1.99 3.33 2.98 3.66 4 4 C3.01 4.33 2.02 4.66 1 5 C-0.22969878 8.51190809 -0.22969878 8.51190809 -1 12 C-0.34 12.33 0.32 12.66 1 13 C-0.65 13.33 -2.3 13.66 -4 14 C-4.10815225 12.23050905 -4.18566083 10.45912513 -4.25 8.6875 C-4.29640625 7.70136719 -4.3428125 6.71523438 -4.390625 5.69921875 C-4 3 -4 3 -1.984375 1.14453125 C-1.00210937 0.57798828 -1.00210937 0.57798828 0 0 Z " fill="#000000" transform="translate(313,308)"/>
<path d="M0 0 C2.6875 0.875 2.6875 0.875 5 2 C4.01 2.66 3.02 3.32 2 4 C0.7811879 7.55672179 0.7811879 7.55672179 0 11 C1.32 10.34 2.64 9.68 4 9 C3.67 9.99 3.34 10.98 3 12 C1.02 12.33 -0.96 12.66 -3 13 C-2.125 5.25 -2.125 5.25 -1 3 C-1.66 2.67 -2.32 2.34 -3 2 C-2.01 1.34 -1.02 0.68 0 0 Z " fill="#000000" transform="translate(278,309)"/>
<path d="M0 0 C0.99 0 1.98 0 3 0 C4.26264601 4.29299643 3.62950412 6.87831311 2 11 C0.68 10.67 -0.64 10.34 -2 10 C-1.85950482 8.52031676 -1.71245174 7.04125484 -1.5625 5.5625 C-1.48128906 4.73878906 -1.40007812 3.91507812 -1.31640625 3.06640625 C-1 1 -1 1 0 0 Z " fill="#000000" transform="translate(170,311)"/>
<path d="M0 0 C1.4540625 0.0309375 1.4540625 0.0309375 2.9375 0.0625 C2.75 1.9375 2.75 1.9375 1.9375 4.0625 C-0.625 5.3125 -0.625 5.3125 -3.0625 6.0625 C-3.0625 7.0525 -3.0625 8.0425 -3.0625 9.0625 C-1.4125 8.7325 0.2375 8.4025 1.9375 8.0625 C0.9475 9.5475 0.9475 9.5475 -0.0625 11.0625 C-2.6875 11.25 -2.6875 11.25 -5.0625 11.0625 C-6.25 8.875 -6.25 8.875 -7.0625 6.0625 C-4.21004098 0.0859192 -4.21004098 0.0859192 0 0 Z M-2.0625 1.0625 C-2.3925 2.3825 -2.7225 3.7025 -3.0625 5.0625 C-2.0725 4.4025 -1.0825 3.7425 -0.0625 3.0625 C-0.0625 2.4025 -0.0625 1.7425 -0.0625 1.0625 C-0.7225 1.0625 -1.3825 1.0625 -2.0625 1.0625 Z " fill="#000000" transform="translate(191.0625,310.9375)"/>
<path d="M0 0 C0 3.33333333 0 6.66666667 0 10 C-1.32 10.33 -2.64 10.66 -4 11 C-5.23076923 5.58461538 -5.23076923 5.58461538 -4.0625 2.625 C-3.711875 2.08875 -3.36125 1.5525 -3 1 C-4.98 1.99 -4.98 1.99 -7 3 C-7.15149298 6.62885324 -7.15149298 6.62885324 -6 10 C-7.65 10.33 -9.3 10.66 -11 11 C-12 8 -12 8 -10.6875 4.375 C-8.01229218 -0.97541564 -5.64347469 -0.10450879 0 0 Z " fill="#000000" transform="translate(212,311)"/>
<path d="M0 0 C1.4540625 0.0309375 1.4540625 0.0309375 2.9375 0.0625 C2.75 1.9375 2.75 1.9375 1.9375 4.0625 C-0.625 5.3125 -0.625 5.3125 -3.0625 6.0625 C-3.0625 7.0525 -3.0625 8.0425 -3.0625 9.0625 C-1.4125 8.7325 0.2375 8.4025 1.9375 8.0625 C0.9475 9.5475 0.9475 9.5475 -0.0625 11.0625 C-2.6875 11.25 -2.6875 11.25 -5.0625 11.0625 C-6.25 8.875 -6.25 8.875 -7.0625 6.0625 C-4.21004098 0.0859192 -4.21004098 0.0859192 0 0 Z M-2.0625 1.0625 C-2.3925 2.3825 -2.7225 3.7025 -3.0625 5.0625 C-2.0725 4.4025 -1.0825 3.7425 -0.0625 3.0625 C-0.0625 2.4025 -0.0625 1.7425 -0.0625 1.0625 C-0.7225 1.0625 -1.3825 1.0625 -2.0625 1.0625 Z " fill="#000000" transform="translate(250.0625,310.9375)"/>
<path d="M0 0 C1.4540625 0.0309375 1.4540625 0.0309375 2.9375 0.0625 C2.9375 0.7225 2.9375 1.3825 2.9375 2.0625 C1.2875 1.7325 -0.3625 1.4025 -2.0625 1.0625 C-1.0415625 2.17625 -1.0415625 2.17625 0 3.3125 C1.9375 6.0625 1.9375 6.0625 1.75 8.3125 C0.9375 10.0625 0.9375 10.0625 -0.0625 11.0625 C-1.72867115 11.10313832 -3.39638095 11.105221 -5.0625 11.0625 C-5.3925 10.0725 -5.7225 9.0825 -6.0625 8.0625 C-3.5875 9.0525 -3.5875 9.0525 -1.0625 10.0625 C-1.81400023 6.78476496 -1.81400023 6.78476496 -5.0625 5.0625 C-3.9375 0.08035714 -3.9375 0.08035714 0 0 Z " fill="#000000" transform="translate(265.0625,310.9375)"/>
<path d="M0 0 C-0.33 3.3 -0.66 6.6 -1 10 C-2.32 10.33 -3.64 10.66 -5 11 C-5.33 10.34 -5.66 9.68 -6 9 C-6.66 9.66 -7.32 10.32 -8 11 C-10.125 10.625 -10.125 10.625 -12 10 C-11.41018767 3.74798928 -11.41018767 3.74798928 -9.9375 1.0625 C-6.72427107 -0.69959328 -3.6157826 -0.17782537 0 0 Z M-7 1 C-9.1519437 4.22791555 -9.20086443 5.28400809 -9 9 C-6.43750025 6.68767578 -6.43750025 6.68767578 -4 4 C-4 3.01 -4 2.02 -4 1 C-4.99 1 -5.98 1 -7 1 Z " fill="#000000" transform="translate(301,311)"/>
<path d="M0 0 C-0.1875 1.875 -0.1875 1.875 -1 4 C-3.5625 5.25 -3.5625 5.25 -6 6 C-5.67 6.66 -5.34 7.32 -5 8 C-3.68 8 -2.36 8 -1 8 C-1 8.66 -1 9.32 -1 10 C-3.3260857 10.38063221 -5.66055264 10.71269945 -8 11 C-9 10 -9 10 -9.25 6.625 C-9 3 -9 3 -7.875 1.0625 C-5.214973 -0.44484863 -2.99793795 -0.19986253 0 0 Z M-5 1 C-5.33 2.32 -5.66 3.64 -6 5 C-5.01 4.67 -4.02 4.34 -3 4 C-3 3.01 -3 2.02 -3 1 C-3.66 1 -4.32 1 -5 1 Z " fill="#000000" transform="translate(332,311)"/>
</svg>
